<?xml version="1.0" encoding="iso-8859-1"?>
<svg id="Capa_1" enable-background="new 0 0 512 512" height="512" viewBox="0 0 512 512" width="512"
     xmlns="http://www.w3.org/2000/svg">
    <g>
        <g>
            <g>
                <path
                    d="m504.5 27.5v457c0 11.05-8.95 20-20 20h-457c-11.05 0-20-8.95-20-20v-457c0-11.05 8.95-20 20-20h457c11.05 0 20 8.95 20 20z"
                    fill="#ffb800"/>
                <path
                    d="m504.5 27.5v457c0 11.05-8.95 20-20 20h-135.15c138.46-91.47 115.2-389.51 101.8-497h33.35c11.05 0 20 8.95 20 20z"
                    fill="#ff9700"/>
            </g>
            <g>
                <g>
                    <path
                        d="m185.282 124.909v56.934c0 5.523-4.477 10-10 10h-62.782c-5.523 0-10-4.477-10-10v-56.934c0-5.523 4.477-10 10-10h62.782c5.523 0 10 4.477 10 10z"
                        fill="#e8e6ed"/>
                    <path
                        d="m185.282 124.909v56.934c0 5.523-4.477 10-10 10h-44.906c21.42-23.623 23.08-58.708 22.258-76.934h22.648c5.523 0 10 4.477 10 10z"
                        fill="#d1d0d8"/>
                </g>
                <g>
                    <path
                        d="m297.391 124.909v56.934c0 5.523-4.477 10-10 10h-62.782c-5.523 0-10-4.477-10-10v-56.934c0-5.523 4.477-10 10-10h62.782c5.523 0 10 4.477 10 10z"
                        fill="#d1d0d8"/>
                    <path
                        d="m297.391 124.909v56.934c0 5.523-4.477 10-10 10h-44.906c21.42-23.623 23.08-58.708 22.258-76.934h22.648c5.523 0 10 4.477 10 10z"
                        fill="#bdbcc4"/>
                </g>
                <g>
                    <path
                        d="m409.5 124.909v56.934c0 5.523-4.477 10-10 10h-62.782c-5.523 0-10-4.477-10-10v-56.934c0-5.523 4.477-10 10-10h62.782c5.523 0 10 4.477 10 10z"
                        fill="#e8e6ed"/>
                    <path
                        d="m409.5 124.909v56.934c0 5.523-4.477 10-10 10h-44.906c21.42-23.623 23.08-58.708 22.258-76.934h22.648c5.523 0 10 4.477 10 10z"
                        fill="#d1d0d8"/>
                </g>
                <g>
                    <path
                        d="m185.282 227.533v56.934c0 5.523-4.477 10-10 10h-62.782c-5.523 0-10-4.477-10-10v-56.934c0-5.523 4.477-10 10-10h62.782c5.523 0 10 4.477 10 10z"
                        fill="#d1d0d8"/>
                    <path
                        d="m185.282 227.533v56.934c0 5.523-4.477 10-10 10h-44.906c21.42-23.623 23.08-58.708 22.258-76.934h22.648c5.523 0 10 4.477 10 10z"
                        fill="#bdbcc4"/>
                </g>
                <g>
                    <path
                        d="m297.391 227.533v56.934c0 5.523-4.477 10-10 10h-62.782c-5.523 0-10-4.477-10-10v-56.934c0-5.523 4.477-10 10-10h62.782c5.523 0 10 4.477 10 10z"
                        fill="#e8e6ed"/>
                    <path
                        d="m297.391 227.533v56.934c0 5.523-4.477 10-10 10h-44.906c21.42-23.623 23.08-58.708 22.258-76.934h22.648c5.523 0 10 4.477 10 10z"
                        fill="#d1d0d8"/>
                </g>
                <g>
                    <path
                        d="m409.5 227.533v56.934c0 5.523-4.477 10-10 10h-62.782c-5.523 0-10-4.477-10-10v-56.934c0-5.523 4.477-10 10-10h62.782c5.523 0 10 4.477 10 10z"
                        fill="#d1d0d8"/>
                    <path
                        d="m409.5 227.533v56.934c0 5.523-4.477 10-10 10h-44.906c21.42-23.623 23.08-58.708 22.258-76.934h22.648c5.523 0 10 4.477 10 10z"
                        fill="#bdbcc4"/>
                </g>
                <g>
                    <path
                        d="m185.282 330.157v56.934c0 5.523-4.477 10-10 10h-62.782c-5.523 0-10-4.477-10-10v-56.934c0-5.523 4.477-10 10-10h62.782c5.523 0 10 4.477 10 10z"
                        fill="#e8e6ed"/>
                    <path
                        d="m185.282 330.157v56.934c0 5.523-4.477 10-10 10h-44.906c21.42-23.623 23.08-58.708 22.258-76.934h22.648c5.523 0 10 4.477 10 10z"
                        fill="#d1d0d8"/>
                </g>
                <g>
                    <path
                        d="m297.391 330.157v56.934c0 5.523-4.477 10-10 10h-62.782c-5.523 0-10-4.477-10-10v-56.934c0-5.523 4.477-10 10-10h62.782c5.523 0 10 4.477 10 10z"
                        fill="#d1d0d8"/>
                    <path
                        d="m297.391 330.157v56.934c0 5.523-4.477 10-10 10h-44.906c21.42-23.623 23.08-58.708 22.258-76.934h22.648c5.523 0 10 4.477 10 10z"
                        fill="#bdbcc4"/>
                </g>
                <g>
                    <path
                        d="m409.5 330.157v56.934c0 5.523-4.477 10-10 10h-62.782c-5.523 0-10-4.477-10-10v-56.934c0-5.523 4.477-10 10-10h62.782c5.523 0 10 4.477 10 10z"
                        fill="#e8e6ed"/>
                    <path
                        d="m409.5 330.157v56.934c0 5.523-4.477 10-10 10h-44.906c21.42-23.623 23.08-58.708 22.258-76.934h22.648c5.523 0 10 4.477 10 10z"
                        fill="#d1d0d8"/>
                </g>
            </g>
        </g>
        <g>
            <g>
                <path
                    d="m410.374 512h-382.874c-15.164 0-27.5-12.337-27.5-27.5v-145.191c0-4.143 3.358-7.5 7.5-7.5s7.5 3.357 7.5 7.5v145.191c0 6.893 5.607 12.5 12.5 12.5h382.874c4.142 0 7.5 3.357 7.5 7.5s-3.358 7.5-7.5 7.5z"/>
                <path
                    d="m7.5 312.286c-4.142 0-7.5-3.357-7.5-7.5v-277.286c0-15.163 12.336-27.5 27.5-27.5h72.389c4.142 0 7.5 3.357 7.5 7.5s-3.358 7.5-7.5 7.5h-72.389c-6.893 0-12.5 5.607-12.5 12.5v277.286c0 4.143-3.358 7.5-7.5 7.5z"/>
                <path
                    d="m484.5 512h-39.604c-4.142 0-7.5-3.357-7.5-7.5s3.358-7.5 7.5-7.5h39.604c6.893 0 12.5-5.607 12.5-12.5v-457c0-6.893-5.607-12.5-12.5-12.5h-350.088c-4.142 0-7.5-3.357-7.5-7.5s3.358-7.5 7.5-7.5h350.088c15.164 0 27.5 12.336 27.5 27.5v457c0 15.164-12.336 27.5-27.5 27.5z"/>
            </g>
            <g>
                <g>
                    <path
                        d="m175.282 199.343h-62.782c-9.649 0-17.5-7.851-17.5-17.5v-56.934c0-9.649 7.851-17.5 17.5-17.5h62.782c9.649 0 17.5 7.851 17.5 17.5v56.934c0 9.649-7.851 17.5-17.5 17.5zm-62.782-76.934c-1.378 0-2.5 1.121-2.5 2.5v56.934c0 1.379 1.122 2.5 2.5 2.5h62.782c1.378 0 2.5-1.121 2.5-2.5v-56.934c0-1.379-1.122-2.5-2.5-2.5z"/>
                </g>
                <g>
                    <path
                        d="m287.391 199.343h-62.782c-9.649 0-17.5-7.851-17.5-17.5v-56.934c0-9.649 7.851-17.5 17.5-17.5h62.782c9.649 0 17.5 7.851 17.5 17.5v56.934c0 9.649-7.85 17.5-17.5 17.5zm-62.782-76.934c-1.378 0-2.5 1.121-2.5 2.5v56.934c0 1.379 1.122 2.5 2.5 2.5h62.782c1.378 0 2.5-1.121 2.5-2.5v-56.934c0-1.379-1.122-2.5-2.5-2.5z"/>
                </g>
                <g>
                    <path
                        d="m399.5 199.343h-62.782c-9.649 0-17.5-7.851-17.5-17.5v-56.934c0-9.649 7.851-17.5 17.5-17.5h62.782c9.649 0 17.5 7.851 17.5 17.5v56.934c0 9.649-7.851 17.5-17.5 17.5zm-62.782-76.934c-1.378 0-2.5 1.121-2.5 2.5v56.934c0 1.379 1.122 2.5 2.5 2.5h62.782c1.378 0 2.5-1.121 2.5-2.5v-56.934c0-1.379-1.122-2.5-2.5-2.5z"/>
                </g>
                <g>
                    <path
                        d="m175.282 301.967h-62.782c-9.649 0-17.5-7.851-17.5-17.5v-56.934c0-9.649 7.851-17.5 17.5-17.5h62.782c9.649 0 17.5 7.851 17.5 17.5v56.934c0 9.649-7.851 17.5-17.5 17.5zm-62.782-76.934c-1.378 0-2.5 1.121-2.5 2.5v56.934c0 1.379 1.122 2.5 2.5 2.5h62.782c1.378 0 2.5-1.121 2.5-2.5v-56.934c0-1.379-1.122-2.5-2.5-2.5z"/>
                </g>
                <g>
                    <path
                        d="m287.391 301.967h-62.782c-9.649 0-17.5-7.851-17.5-17.5v-56.934c0-9.649 7.851-17.5 17.5-17.5h62.782c9.649 0 17.5 7.851 17.5 17.5v56.934c0 9.649-7.85 17.5-17.5 17.5zm-62.782-76.934c-1.378 0-2.5 1.121-2.5 2.5v56.934c0 1.379 1.122 2.5 2.5 2.5h62.782c1.378 0 2.5-1.121 2.5-2.5v-56.934c0-1.379-1.122-2.5-2.5-2.5z"/>
                </g>
                <g>
                    <path
                        d="m399.5 301.967h-62.782c-9.649 0-17.5-7.851-17.5-17.5v-56.934c0-9.649 7.851-17.5 17.5-17.5h62.782c9.649 0 17.5 7.851 17.5 17.5v56.934c0 9.649-7.851 17.5-17.5 17.5zm-62.782-76.934c-1.378 0-2.5 1.121-2.5 2.5v56.934c0 1.379 1.122 2.5 2.5 2.5h62.782c1.378 0 2.5-1.121 2.5-2.5v-56.934c0-1.379-1.122-2.5-2.5-2.5z"/>
                </g>
                <g>
                    <path
                        d="m175.282 404.591h-62.782c-9.649 0-17.5-7.851-17.5-17.5v-56.934c0-9.649 7.851-17.5 17.5-17.5h62.782c9.649 0 17.5 7.851 17.5 17.5v56.934c0 9.649-7.851 17.5-17.5 17.5zm-62.782-76.934c-1.378 0-2.5 1.121-2.5 2.5v56.934c0 1.379 1.122 2.5 2.5 2.5h62.782c1.378 0 2.5-1.121 2.5-2.5v-56.934c0-1.379-1.122-2.5-2.5-2.5z"/>
                </g>
                <g>
                    <path
                        d="m287.391 404.591h-62.782c-9.649 0-17.5-7.851-17.5-17.5v-56.934c0-9.649 7.851-17.5 17.5-17.5h62.782c9.649 0 17.5 7.851 17.5 17.5v56.934c0 9.649-7.85 17.5-17.5 17.5zm-62.782-76.934c-1.378 0-2.5 1.121-2.5 2.5v56.934c0 1.379 1.122 2.5 2.5 2.5h62.782c1.378 0 2.5-1.121 2.5-2.5v-56.934c0-1.379-1.122-2.5-2.5-2.5z"/>
                </g>
                <g>
                    <path
                        d="m399.5 404.591h-62.782c-9.649 0-17.5-7.851-17.5-17.5v-56.934c0-9.649 7.851-17.5 17.5-17.5h62.782c9.649 0 17.5 7.851 17.5 17.5v56.934c0 9.649-7.851 17.5-17.5 17.5zm-62.782-76.934c-1.378 0-2.5 1.121-2.5 2.5v56.934c0 1.379 1.122 2.5 2.5 2.5h62.782c1.378 0 2.5-1.121 2.5-2.5v-56.934c0-1.379-1.122-2.5-2.5-2.5z"/>
                </g>
            </g>
        </g>
    </g>
</svg>
