<?xml version="1.0" encoding="iso-8859-1"?>
<!-- Generator: Adobe Illustrator 19.0.0, SVG Export Plug-In . SVG Version: 6.00 Build 0)  -->
<svg version="1.1" id="Capa_1" xmlns="http://www.w3.org/2000/svg" xmlns:xlink="http://www.w3.org/1999/xlink" x="0px" y="0px"
	 viewBox="0 0 512 512" style="enable-background:new 0 0 512 512;" xml:space="preserve">
<path style="fill:#FF8700;" d="M448.801,271H497c8.284,0,15-6.716,15-15V111.4c0-8.284-6.716-15-15-15H367.4V63.2
	c0-34.849-28.352-63.2-63.201-63.2C269.351,0,241,28.352,241,63.2v33.2H111.4c-8.284,0-15,6.716-15,15V241H63.199
	C28.351,241,0,269.352,0,304.2s28.351,63.2,63.199,63.2H96.4V497c0,8.284,6.716,15,15,15H256c8.284,0,15-6.716,15-15v-48.2
	c0-18.307,14.894-33.2,33.199-33.2c18.308,0,33.201,14.894,33.201,33.2V497c0,8.284,6.716,15,15,15H497c8.284,0,15-6.716,15-15
	V352.4c0-8.284-6.716-15-15-15h-48.199c-18.308,0-33.201-14.894-33.201-33.2S430.493,271,448.801,271z"/>
<path style="fill:#FF8000;" d="M448.801,271H497c8.284,0,15-6.716,15-15V111.4c0-8.284-6.716-15-15-15H367.4V63.2
	c0-34.849-28.352-63.2-63.201-63.2v415.6c18.308,0,33.201,14.894,33.201,33.2V497c0,8.284,6.716,15,15,15H497
	c8.284,0,15-6.716,15-15V352.4c0-8.284-6.716-15-15-15h-48.199c-18.308,0-33.201-14.894-33.201-33.2S430.493,271,448.801,271z"/>
<g>
</g>
<g>
</g>
<g>
</g>
<g>
</g>
<g>
</g>
<g>
</g>
<g>
</g>
<g>
</g>
<g>
</g>
<g>
</g>
<g>
</g>
<g>
</g>
<g>
</g>
<g>
</g>
<g>
</g>
</svg>
