<?xml version="1.0" encoding="iso-8859-1"?>
<!-- Generator: Adobe Illustrator 19.0.0, SVG Export Plug-In . SVG Version: 6.00 Build 0)  -->
<svg version="1.1" id="Capa_1" xmlns="http://www.w3.org/2000/svg" xmlns:xlink="http://www.w3.org/1999/xlink" x="0px" y="0px"
	 viewBox="0 0 512 512" style="enable-background:new 0 0 512 512;" xml:space="preserve">
<path style="fill:#787680;" d="M149.813,504.5h212.375c78.597,0,142.313-63.715,142.313-142.313V149.813
	C504.5,71.215,440.785,7.5,362.188,7.5H149.813C71.215,7.5,7.5,71.215,7.5,149.813v212.375C7.5,440.785,71.215,504.5,149.813,504.5z
	"/>
<path style="fill:#57565C;" d="M179.812,479.5C115.126,479.5,62.5,426.874,62.5,362.188V149.813
	C62.5,85.126,115.126,32.5,179.812,32.5h212.375c64.687,0,117.313,52.626,117.313,117.313v212.375
	c0,64.687-52.626,117.313-117.313,117.313L179.812,479.5L179.812,479.5z"/>
<path style="fill:#FFB655;" d="M149.812,479.5C85.126,479.5,32.5,426.874,32.5,362.188V149.813
	C32.5,85.126,85.126,32.5,149.812,32.5h212.375c64.687,0,117.313,52.626,117.313,117.313v212.375
	c0,64.687-52.626,117.313-117.313,117.313L149.812,479.5L149.812,479.5z"/>
<g>
	<circle style="fill:#FF7956;" cx="434.5" cy="107.5" r="31.22"/>
	<circle style="fill:#FF7956;" cx="434.5" cy="404.5" r="31.22"/>
	<circle style="fill:#FF7956;" cx="137.5" cy="107.5" r="31.22"/>
	<circle style="fill:#FF7956;" cx="137.5" cy="404.5" r="31.22"/>
</g>
<g>
	<circle style="fill:#FFFFFF;" cx="404.5" cy="107.5" r="31.22"/>
	<circle style="fill:#FFFFFF;" cx="404.5" cy="404.5" r="31.22"/>
	<circle style="fill:#FFFFFF;" cx="107.5" cy="107.5" r="31.22"/>
	<circle style="fill:#FFFFFF;" cx="107.5" cy="404.5" r="31.22"/>
</g>
<path style="fill:#57565C;" d="M37.5,362.188V149.813C37.5,71.215,101.215,7.5,179.812,7.5h-30C71.215,7.5,7.5,71.215,7.5,149.813
	v212.375C7.5,440.784,71.215,504.5,149.812,504.5h30C101.215,504.5,37.5,440.784,37.5,362.188z"/>
<path style="fill:#FF7956;" d="M62.5,362.188V149.813C62.5,85.126,115.126,32.5,179.812,32.5h-30
	C85.126,32.5,32.5,85.126,32.5,149.813v212.375c0,64.687,52.626,117.313,117.312,117.313h30
	C115.126,479.5,62.5,426.874,62.5,362.188z"/>
<g>
	<path style="fill:#D8D7DA;" d="M403.282,107.5c0-11.805,6.552-22.079,16.218-27.385c-4.452-2.444-9.563-3.834-15-3.834
		c-17.241,0-31.218,13.977-31.218,31.218s13.977,31.218,31.218,31.218c5.437,0,10.548-1.39,15-3.834
		C409.834,129.579,403.282,119.305,403.282,107.5z"/>
	<path style="fill:#D8D7DA;" d="M403.282,404.5c0-11.805,6.552-22.079,16.218-27.385c-4.452-2.444-9.563-3.834-15-3.834
		c-17.241,0-31.218,13.977-31.218,31.218s13.977,31.218,31.218,31.218c5.437,0,10.548-1.39,15-3.834
		C409.834,426.579,403.282,416.305,403.282,404.5z"/>
	<path style="fill:#D8D7DA;" d="M106.282,107.5c0-11.805,6.552-22.079,16.218-27.385c-4.452-2.444-9.563-3.834-15-3.834
		c-17.241,0-31.218,13.977-31.218,31.218s13.977,31.218,31.218,31.218c5.437,0,10.548-1.39,15-3.834
		C112.834,129.579,106.282,119.305,106.282,107.5z"/>
	<path style="fill:#D8D7DA;" d="M106.282,404.5c0-11.805,6.552-22.079,16.218-27.385c-4.452-2.444-9.563-3.834-15-3.834
		c-17.241,0-31.218,13.977-31.218,31.218s13.977,31.218,31.218,31.218c5.437,0,10.548-1.39,15-3.834
		C112.834,426.579,106.282,416.305,106.282,404.5z"/>
</g>
<path d="M362.188,0H149.812C67.206,0,0,67.206,0,149.813v212.375C0,444.794,67.206,512,149.812,512h212.375
	C444.794,512,512,444.794,512,362.188V149.813C512,67.206,444.794,0,362.188,0z M497,362.188C497,436.523,436.523,497,362.188,497
	H149.812C75.477,497,15,436.523,15,362.188V149.813C15,75.477,75.477,15,149.812,15h212.375C436.523,15,497,75.477,497,149.813
	V362.188z"/>
<path d="M362.188,25H149.812C80.991,25,25,80.99,25,149.813v212.375C25,431.01,80.991,487,149.812,487h212.375
	C431.01,487,487,431.01,487,362.188V149.813C487,80.99,431.01,25,362.188,25z M472,362.188C472,422.738,422.738,472,362.188,472
	H149.812C89.262,472,40,422.738,40,362.188V149.813C40,89.262,89.262,40,149.812,40h212.375C422.738,40,472,89.262,472,149.813
	V362.188z"/>
<g>
	<rect x="180.41" y="50" style="fill:#FFFFFF;" width="123.11" height="15"/>
	<rect x="313.52" y="50" style="fill:#FFFFFF;" width="15" height="15"/>
	<rect x="338.52" y="50" style="fill:#FFFFFF;" width="15" height="15"/>
</g>
<rect x="50" y="207" width="15" height="116.25"/>
<rect x="188.33" y="447" width="15" height="15"/>
<rect x="163.33" y="447" width="15" height="15"/>
<rect x="213.33" y="447" width="15" height="15"/>
<rect x="397" y="100" width="15" height="15"/>
<rect x="397" y="397" width="15" height="15"/>
<path d="M404.5,68.781c-21.35,0-38.719,17.369-38.719,38.719s17.369,38.719,38.719,38.719s38.719-17.369,38.719-38.719
	S425.85,68.781,404.5,68.781z M404.5,131.219c-13.078,0-23.719-10.641-23.719-23.719s10.641-23.719,23.719-23.719
	s23.719,10.641,23.719,23.719S417.578,131.219,404.5,131.219z"/>
<path d="M404.5,365.781c-21.35,0-38.719,17.369-38.719,38.719s17.369,38.719,38.719,38.719s38.719-17.369,38.719-38.719
	S425.85,365.781,404.5,365.781z M404.5,428.219c-13.078,0-23.719-10.641-23.719-23.719s10.641-23.719,23.719-23.719
	s23.719,10.641,23.719,23.719S417.578,428.219,404.5,428.219z"/>
<rect x="100" y="100" width="15" height="15"/>
<rect x="100" y="397" width="15" height="15"/>
<path d="M107.5,146.219c21.349,0,38.718-17.369,38.718-38.719S128.849,68.781,107.5,68.781S68.782,86.15,68.782,107.5
	S86.151,146.219,107.5,146.219z M107.5,83.781c13.078,0,23.718,10.641,23.718,23.719s-10.64,23.719-23.718,23.719
	S83.782,120.578,83.782,107.5S94.422,83.781,107.5,83.781z"/>
<path d="M107.5,365.781c-21.349,0-38.718,17.369-38.718,38.719s17.369,38.719,38.718,38.719s38.718-17.369,38.718-38.719
	S128.849,365.781,107.5,365.781z M107.5,428.219c-13.078,0-23.718-10.641-23.718-23.719s10.64-23.719,23.718-23.719
	s23.718,10.641,23.718,23.719S120.578,428.219,107.5,428.219z"/>
<polygon points="170.643,181.25 152.917,181.25 152.917,196.25 196.25,196.25 196.25,152.917 181.25,152.917 181.25,170.643 
	153.303,142.696 142.697,153.304 "/>
<polygon points="196.25,359.083 196.25,315.75 152.917,315.75 152.917,330.75 170.643,330.75 142.697,358.696 153.303,369.304 
	181.25,341.357 181.25,359.083 "/>
<polygon points="315.75,152.917 315.75,196.25 359.083,196.25 359.083,181.25 341.357,181.25 369.304,153.304 358.696,142.696 
	330.75,170.643 330.75,152.917 "/>
<polygon points="341.357,330.75 359.083,330.75 359.083,315.75 315.75,315.75 315.75,359.083 330.75,359.083 330.75,341.357 
	358.696,369.304 369.304,358.696 "/>
<g>
</g>
<g>
</g>
<g>
</g>
<g>
</g>
<g>
</g>
<g>
</g>
<g>
</g>
<g>
</g>
<g>
</g>
<g>
</g>
<g>
</g>
<g>
</g>
<g>
</g>
<g>
</g>
<g>
</g>
</svg>
